<svg width="1920" height="1048" viewBox="0 0 1920 1048" fill="none" xmlns="http://www.w3.org/2000/svg">
<path d="M688.778 538.463L687.483 515.403L700.643 514.633L701.937 537.693L697.677 537.931L697.777 539.788L692.9 540.058L692.8 538.209L688.778 538.463ZM688.007 515.804L689.248 538.016L693.27 537.785L693.377 539.642L697.276 539.418L697.168 537.569L701.437 537.33L700.188 515.118L688.007 515.804Z" fill="#00C9FF"/>
<path d="M688.77 519.918L688.562 516.112L699.649 515.495L699.864 519.294L688.77 519.918ZM689.07 516.536L689.24 519.448L699.348 518.878L699.186 515.973L689.07 516.536Z" fill="#00C9FF"/>
<path d="M689.024 524.31L688.809 520.503L699.896 519.879L700.111 523.685L689.024 524.31ZM689.317 520.92L689.487 523.832L699.595 523.262L699.433 520.349L689.317 520.92Z" fill="#00C9FF"/>
<path d="M689.248 528.694L689.032 524.888L700.119 524.263L700.335 528.07L689.248 528.694ZM689.541 525.304L689.71 528.216L699.819 527.646L699.657 524.733L689.541 525.304Z" fill="#00C9FF"/>
<path d="M689.517 533.077L689.302 529.271L700.389 528.647L700.604 532.453L689.517 533.077ZM689.81 529.687L689.98 532.607L700.088 532.037L699.926 529.117L689.81 529.687Z" fill="#00C9FF"/>
<path d="M689.764 537.461L689.548 533.655L700.635 533.031L700.851 536.837L689.764 537.461ZM690.056 534.071L690.226 536.991L700.342 536.421L700.173 533.509L690.056 534.071Z" fill="#00C9FF"/>
<path d="M699.327 518.876L699.164 515.945L688.748 516.523L688.911 519.454L699.327 518.876Z" fill="#00C9FF"/>
<path d="M699.71 523.246L699.545 520.307L689.129 520.893L689.295 523.832L699.71 523.246Z" fill="#00C9FF"/>
<path d="M697.061 554.974L697.97 554.843C707.974 623.876 744.426 686.315 799.622 728.965C854.819 771.614 924.435 791.132 993.759 783.394L993.867 784.295C949.311 789.325 904.204 783.144 862.643 766.313C821.083 749.481 784.386 722.534 755.886 687.918C724.505 649.806 704.161 603.829 697.061 554.974V554.974Z" fill="#00C9FF"/>
<path d="M933.686 248.714C978.242 243.681 1023.35 249.862 1064.91 266.695C1106.47 283.528 1143.16 310.479 1171.66 345.099C1204.88 385.419 1225.69 434.509 1231.56 486.418C1236.59 530.973 1230.41 576.079 1213.58 617.638C1196.75 659.197 1169.8 695.892 1135.19 724.392C1108.48 746.376 1077.8 763.036 1044.82 773.47L1044.54 772.6C1094.19 756.916 1138.22 727.171 1171.3 686.97C1199.68 652.45 1218.98 611.388 1227.46 567.514C1235.94 523.639 1233.32 478.343 1219.84 435.737C1204.16 386.09 1174.42 342.059 1134.21 308.98C1106.44 286.227 1074.41 269.258 1039.98 259.069C1005.56 248.881 969.442 245.68 933.763 249.654L933.686 248.714Z" fill="#00C9FF"/>
<path d="M705.428 440.013C720.602 388.503 750.882 342.732 792.352 308.618C819.064 286.64 849.74 269.983 882.719 259.547L882.989 260.417C833.36 276.105 789.345 305.85 756.278 346.047C733.464 373.776 716.483 405.825 706.352 440.275C700.767 459.098 697.253 478.474 695.874 498.06L694.957 497.99C696.332 478.342 699.842 458.901 705.428 440.013V440.013Z" fill="#00C9FF"/>
<path d="M772.713 359.569C803.547 321.997 844.781 294.358 891.252 280.115C937.722 265.871 987.362 265.655 1033.95 279.494L1034.39 279.617L1027.82 301.807L1027.39 301.676C908.931 266.604 784.023 334.436 748.944 452.895C713.864 571.354 781.704 696.262 900.163 731.334C1018.62 766.405 1143.53 698.573 1178.6 580.122L1178.73 579.683L1200.92 586.255L1200.79 586.686C1186.88 633.947 1159.11 675.942 1121.06 707.233C1084.06 737.713 1039.01 756.808 991.378 762.206C958.53 765.925 925.27 762.972 893.591 753.523L893.853 752.645C940.892 766.657 991.054 766.224 1037.85 751.404C1083.39 737.024 1123.79 709.738 1154.13 672.855C1174.96 647.535 1190.48 618.29 1199.79 586.856L1179.35 580.808C1166.65 623.447 1141.61 661.368 1107.37 689.781C1073.14 718.195 1031.25 735.825 987.005 740.447C942.757 745.069 898.131 736.474 858.765 715.748C819.398 695.022 787.057 663.095 765.825 623.999C744.593 584.903 735.423 540.392 739.474 496.088C743.525 451.784 760.614 409.673 788.583 375.076C816.552 340.478 854.147 314.945 896.62 301.701C939.092 288.458 984.536 288.098 1027.21 300.666L1033.26 280.211C986.344 266.342 936.351 266.82 889.708 281.582C844.159 295.976 803.764 323.275 773.421 360.17L772.713 359.569Z" fill="#00C9FF"/>
<path d="M1041 306.183L1041.32 305.32C1092.64 324.173 1135.34 361.066 1161.44 409.106C1187.54 457.146 1195.26 513.046 1183.15 566.362L1182.26 566.161C1207.28 456.586 1146.55 344.822 1041 306.183Z" fill="#00C9FF"/>
<path d="M697.993 557.193C697.578 557.263 697.152 557.209 696.769 557.037C696.385 556.865 696.061 556.583 695.838 556.227C695.614 555.872 695.501 555.457 695.513 555.037C695.524 554.617 695.66 554.21 695.903 553.867C696.146 553.524 696.485 553.261 696.878 553.11C697.27 552.96 697.698 552.929 698.108 553.022C698.518 553.115 698.891 553.328 699.181 553.632C699.47 553.937 699.662 554.321 699.734 554.735C699.781 555.011 699.774 555.293 699.712 555.566C699.65 555.839 699.535 556.097 699.373 556.326C699.212 556.554 699.006 556.748 698.769 556.897C698.532 557.046 698.268 557.146 697.993 557.193V557.193Z" fill="#00C9FF"/>
<path d="M694.224 559.89L692.807 551.653L701.043 550.236L702.461 558.472L694.224 559.89ZM693.654 552.254L694.825 559.042L701.613 557.871L700.442 551.083L693.654 552.254Z" fill="#00C9FF"/>
<path d="M695.126 500.78C694.718 500.728 694.334 500.556 694.024 500.285C693.714 500.014 693.492 499.658 693.385 499.26C693.279 498.863 693.293 498.442 693.426 498.053C693.559 497.663 693.805 497.322 694.133 497.073C694.461 496.824 694.855 496.678 695.266 496.654C695.677 496.63 696.086 496.729 696.44 496.938C696.795 497.147 697.079 497.457 697.256 497.829C697.434 498.2 697.497 498.616 697.438 499.023C697.361 499.561 697.076 500.047 696.643 500.376C696.21 500.705 695.665 500.85 695.126 500.78Z" fill="#00C9FF"/>
<path d="M690.835 502.174L691.968 494.146L700.034 495.286L698.894 503.314L690.835 502.174ZM692.576 494.955L691.636 501.573L698.255 502.505L699.187 495.895L692.576 494.955Z" fill="#00C9FF"/>
<path d="M1182.18 568.288C1181.78 568.187 1181.42 567.969 1181.14 567.662C1180.87 567.356 1180.68 566.974 1180.62 566.565C1180.56 566.156 1180.62 565.738 1180.8 565.364C1180.98 564.99 1181.26 564.676 1181.61 564.462C1181.97 564.248 1182.38 564.144 1182.79 564.162C1183.2 564.18 1183.6 564.321 1183.93 564.565C1184.27 564.809 1184.52 565.147 1184.66 565.535C1184.81 565.923 1184.83 566.345 1184.73 566.747C1184.67 567.017 1184.55 567.271 1184.39 567.495C1184.23 567.72 1184.02 567.909 1183.78 568.052C1183.54 568.196 1183.28 568.29 1183.01 568.331C1182.73 568.371 1182.45 568.357 1182.18 568.288V568.288Z" fill="#00C9FF"/>
<path d="M1177.72 569.22L1179.76 561.269L1187.72 563.303L1185.68 571.254L1177.72 569.22ZM1180.27 562.147L1178.6 568.704L1185.16 570.376L1186.84 563.819L1180.27 562.147Z" fill="#00C9FF"/>
<path d="M993.959 786.121C993.485 786.19 993.002 786.116 992.57 785.91C992.138 785.703 991.777 785.373 991.533 784.962C991.289 784.55 991.172 784.075 991.198 783.597C991.224 783.119 991.39 782.659 991.677 782.276C991.965 781.893 992.359 781.604 992.81 781.445C993.262 781.286 993.75 781.265 994.214 781.383C994.678 781.502 995.096 781.756 995.415 782.113C995.735 782.469 995.941 782.912 996.009 783.386C996.054 783.701 996.038 784.021 995.959 784.328C995.881 784.636 995.743 784.926 995.552 785.18C995.362 785.434 995.123 785.648 994.85 785.809C994.576 785.971 994.274 786.077 993.959 786.121V786.121Z" fill="#00C9FF"/>
<path d="M989.599 789.08L988.266 779.711L997.642 778.371L998.975 787.747L989.599 789.08ZM989.206 780.412L990.307 788.117L998.012 787.023L996.91 779.318L989.206 780.412Z" fill="#00C9FF"/>
<path d="M1045.48 775.528C1044.99 775.677 1044.46 775.678 1043.97 775.53C1043.48 775.381 1043.05 775.091 1042.72 774.694C1042.39 774.298 1042.19 773.814 1042.14 773.303C1042.09 772.792 1042.19 772.278 1042.43 771.824C1042.67 771.371 1043.04 770.999 1043.49 770.757C1043.95 770.514 1044.46 770.41 1044.97 770.459C1045.48 770.509 1045.97 770.708 1046.37 771.033C1046.76 771.358 1047.06 771.793 1047.21 772.284C1047.31 772.61 1047.34 772.953 1047.31 773.293C1047.28 773.633 1047.18 773.964 1047.02 774.265C1046.86 774.567 1046.64 774.833 1046.38 775.05C1046.11 775.267 1045.81 775.429 1045.48 775.528V775.528Z" fill="#00C9FF"/>
<path d="M1041.35 779.395L1038.37 769.68L1048.08 766.698L1051.07 776.414L1041.35 779.395ZM1039.48 770.273L1041.94 778.278L1049.95 775.82L1047.49 767.815L1039.48 770.273Z" fill="#00C9FF"/>
<path d="M883.575 262.49C883.072 262.63 882.54 262.617 882.045 262.454C881.55 262.291 881.115 261.985 880.794 261.574C880.473 261.164 880.281 260.667 880.242 260.147C880.203 259.628 880.319 259.108 880.575 258.654C880.832 258.201 881.217 257.833 881.683 257.599C882.148 257.364 882.672 257.272 883.19 257.336C883.707 257.399 884.194 257.614 884.589 257.955C884.984 258.295 885.269 258.744 885.408 259.246C885.502 259.58 885.529 259.928 885.487 260.272C885.446 260.616 885.336 260.948 885.166 261.249C884.996 261.551 884.767 261.816 884.494 262.029C884.221 262.241 883.908 262.398 883.575 262.49V262.49Z" fill="#00C9FF"/>
<path d="M879.275 266.342L876.509 256.388L886.463 253.622L889.229 263.576L879.275 266.342ZM877.626 257.02L879.937 265.225L888.143 262.914L885.831 254.708L877.626 257.02Z" fill="#00C9FF"/>
<path d="M934.749 251.596C934.253 251.648 933.752 251.552 933.311 251.32C932.87 251.088 932.507 250.729 932.269 250.291C932.032 249.852 931.929 249.353 931.976 248.857C932.022 248.36 932.215 247.888 932.529 247.501C932.844 247.114 933.266 246.829 933.743 246.682C934.22 246.536 934.729 246.534 935.207 246.677C935.685 246.82 936.11 247.102 936.427 247.486C936.745 247.871 936.941 248.341 936.991 248.837C937.058 249.5 936.859 250.162 936.439 250.679C936.019 251.196 935.411 251.526 934.749 251.596V251.596Z" fill="#00C9FF"/>
<path d="M930.088 254.493L929.094 244.692L938.894 243.691L939.896 253.491L930.088 254.493ZM930.041 245.463L930.866 253.545L938.94 252.721L938.108 244.638L930.041 245.463Z" fill="#00C9FF"/>
</svg>
