<svg width="1236" height="47" viewBox="0 0 1236 47" fill="none" xmlns="http://www.w3.org/2000/svg">
<g clip-path="url(#clip0_420_1219)">
<path d="M704.19 27.71H531.16L518.93 15.48H487.27L516.87 45.08H617.67H718.48L748.08 15.48H716.43L704.19 27.71Z" fill="#00FFFF"/>
<g opacity="0.7">
<path d="M1185.51 7.32L1192.84 0H1179.84L1172.51 7.32H1185.51Z" fill="#00FFFF"/>
</g>
<g opacity="0.5">
<path d="M1206.77 7.32L1214.09 0H1201.09L1193.77 7.32H1206.77Z" fill="#00FFFF"/>
</g>
<g opacity="0.3">
<path d="M1228.03 7.32L1235.35 0H1222.35L1215.02 7.32H1228.03Z" fill="#00FFFF"/>
</g>
<path d="M866.65 0H781.77L736.69 45.08H784.94L822.7 7.32H960.78H1163.26L1170.59 0H866.65Z" fill="#00FFFF"/>
<path d="M827.81 15.38L798.11 45.08H813.84L843.54 15.38H827.81Z" fill="#00FFFF"/>
<g opacity="0.7">
<path d="M49.8298 7.32L42.5098 0H55.5098L62.8398 7.32H49.8298Z" fill="#00FFFF"/>
</g>
<g opacity="0.5">
<path d="M28.5798 7.32L21.2598 0H34.2598L41.5798 7.32H28.5798Z" fill="#00FFFF"/>
</g>
<g opacity="0.3">
<path d="M7.32 7.32L0 0H13L20.33 7.32H7.32Z" fill="#00FFFF"/>
</g>
<path d="M368.7 0H453.58L498.66 45.08H450.41L412.65 7.32H274.57H72.0898L64.7598 0H368.7Z" fill="#00FFFF"/>
<path d="M405.53 17.38L435.24 47.08H419.51L389.81 17.38H405.53Z" fill="#00FFFF"/>
</g>
<defs>
<clipPath id="clip0_420_1219">
<rect width="1235.35" height="47.08" fill="white"/>
</clipPath>
</defs>
</svg>
