<svg width="17" height="17" viewBox="0 0 17 17" fill="none" xmlns="http://www.w3.org/2000/svg">
<path fill-rule="evenodd" clip-rule="evenodd" d="M11.6275 14.9835C12.4663 15.3505 12.7808 14.5816 12.7808 14.5816L15 3.43318C14.9825 2.6818 13.969 3.13612 13.969 3.13612L1.54497 8.01138C1.54497 8.01138 0.950854 8.22107 1.00328 8.58803C1.0557 8.95498 1.5275 9.12972 1.5275 9.12972L4.65535 10.1782C4.65535 10.1782 5.59895 13.2711 5.79117 13.8652C5.96591 14.4418 6.12318 14.4593 6.12318 14.4593C6.29792 14.5292 6.45518 14.4069 6.45518 14.4069L8.48217 12.5721L11.6275 14.9835ZM12.1693 5.40773C12.1693 5.40773 12.6062 5.14562 12.5887 5.40773C12.5887 5.40773 12.6586 5.44268 12.4314 5.68732C12.2218 5.897 7.2766 10.3354 6.61259 10.9295C6.56016 10.9645 6.52522 11.0169 6.52522 11.0868L6.333 12.7294C6.29805 12.9041 6.07089 12.9216 6.01847 12.7643L5.19719 10.0733C5.16224 9.96846 5.19719 9.84614 5.30203 9.77625L12.1693 5.40773Z" fill="#00FFFF"/>
</svg>
