<svg width="17" height="17" viewBox="0 0 17 17" fill="none" xmlns="http://www.w3.org/2000/svg">
<path d="M13.6898 5.49597C13.6898 5.6087 13.6898 5.72142 13.6898 5.81804C13.6898 9.15137 11.0013 13 6.10079 13C4.58639 13 3.1911 12.5813 2 11.8728C2.20419 11.8889 2.42539 11.905 2.62958 11.905C3.87173 11.905 5.0288 11.5024 5.94764 10.8261C4.77356 10.81 3.78665 10.0692 3.46335 9.07085C3.63351 9.10306 3.78665 9.11916 3.97382 9.11916C4.21204 9.11916 4.45026 9.08696 4.67147 9.02254C3.44634 8.7971 2.52749 7.78261 2.52749 6.55878C2.52749 6.54267 2.52749 6.54267 2.52749 6.52657C2.88482 6.71981 3.29319 6.83253 3.7356 6.84863C3.02094 6.39775 2.5445 5.6248 2.5445 4.73913C2.5445 4.27214 2.68063 3.83736 2.90183 3.46699C4.21204 4.99678 6.18586 5.99517 8.39791 6.10789C8.34686 5.93076 8.32984 5.72142 8.32984 5.52818C8.32984 4.12721 9.52094 3 11.0013 3C11.767 3 12.4647 3.30596 12.9411 3.78905C13.5537 3.67633 14.1152 3.46699 14.6427 3.17713C14.4385 3.77295 14.0131 4.25604 13.4686 4.5781C14.0131 4.51369 14.5236 4.38486 15 4.17552C14.6597 4.69082 14.2173 5.14171 13.6898 5.49597Z" fill="#00FFFF"/>
</svg>
